<svg xmlns="http://www.w3.org/2000/svg" xmlns:xlink="http://www.w3.org/1999/xlink" viewBox="0 0 69 25"><defs><mask id="a" x="0" y="0" width="68.99" height="24.98" maskUnits="userSpaceOnUse"><polygon points="0 0 68.99 0 68.99 24.98 0 24.98 0 0" fill="#fff" fill-rule="evenodd"/></mask></defs><title>brand-logo</title><g mask="url(#a)"><path d="M33.21,13.36a26.43,26.43,0,0,0,2.67-.21c1.56-.26,3.1-.66,4.65-.93,1.81-.32,3.63-.56,5.13-.79a27,27,0,0,0-12.45,1.93M19.94,18.31l0,.16c5.79,1.34,11.41,3.34,17.26,4.38-1.12-.46-2.25-.89-3.38-1.32-2.87-1.08-5.7-2.34-8.77-2.72-1.69-.22-3.39-.34-5.09-.5m27.51,3c-5.54-1.63-11-2.88-16.72-2.59,5.4,1.83,10.84,3.33,16.72,2.59m-11-10.09a1.63,1.63,0,0,0-.3-.06A28.78,28.78,0,0,1,29.22,9.8a.93.93,0,0,0-.64.12c-.82.44-1.61.92-2.42,1.36-.59.31-1.2.57-1.85.88a.72.72,0,0,0,.24.13c2.23.34,4.47.69,6.71,1a.84.84,0,0,0,.42,0l4.77-2.09M48.09,23c1.11-.2,2.22-.44,3.34-.61.89-.13,1.79-.18,2.68-.27.32,0,.47.08.43.44-.14,1.37.21,1.08-1.13,1.35a52.87,52.87,0,0,1-12,1,50.28,50.28,0,0,1-12.3-2.29c-4.74-1.39-9.5-2.75-14.27-4a7,7,0,0,0-2.57.05c-1.55.19-3.1.46-4.65.7l-.36,0,0-.14,4.65-1.12V18c-1,0-1.94,0-2.91,0s-2,.06-3,.14-2,.19-3,.32a26.26,26.26,0,0,1-3,.31c1.3-.32,2.6-.67,3.9-1a31.78,31.78,0,0,1,11.34-.23,16.69,16.69,0,0,0,2.9-.15,35.74,35.74,0,0,1,10.42.62A7.91,7.91,0,0,0,30.48,18c1.76-.06,3.52-.09,5.28-.13a1.3,1.3,0,0,0,.43-.05c-3.91-1.41-7.93-1.27-12.09-.83a1.53,1.53,0,0,1,.28-.17,1.29,1.29,0,0,1,.21-.07,22,22,0,0,1,7.92-.61,51,51,0,0,1,8.2,1.68,35.75,35.75,0,0,0,8.3,1,22.23,22.23,0,0,0,5.83-1.08c.92-.25,1.86-.44,2.79-.65l.51-.14a31.09,31.09,0,0,0-10.49-.15,26.61,26.61,0,0,1-10.4-.53,8.34,8.34,0,0,1-1.7-.53l2.29.24a26.83,26.83,0,0,0,8.74-.66,37.27,37.27,0,0,1,9.82-.91.27.27,0,0,0,.23-.11c-.82-.14-1.63-.35-2.45-.43-2.6-.25-5.2-.5-7.8-.66a25.44,25.44,0,0,0-6.32.67,31.29,31.29,0,0,1-9.36.45,1.62,1.62,0,0,0-.68.11c-.28.07-.55.19-.82.28,0,0-.06,0-.13,0l.73-.47c-1.41-.29-2.71-.54-4-.82A14,14,0,0,0,23,12.73a14.62,14.62,0,0,0-2.83.65,26.07,26.07,0,0,1-10,0c3.83.15,7.66.4,11.52-1a16.54,16.54,0,0,0-10.47-.16,12.78,12.78,0,0,1,7.55-1.11c1.26.22,2.52.48,3.78.7a.91.91,0,0,0,.52,0c1.57-.82,3.14-1.66,4.71-2.5a.43.43,0,0,0,.09-.13,5.75,5.75,0,0,0-5.23-.84A3.25,3.25,0,0,1,25,7.8a11,11,0,0,1,2.53.7,1.33,1.33,0,0,0,1.68-.28,17.79,17.79,0,0,1,1.9-1.57c.65-.47,1.35-.86,2-1.28a2.47,2.47,0,0,0-2.93-1.11C28.58,5,27,5.8,25.4,6.51a6,6,0,0,1-1.79.38,3.68,3.68,0,0,1-1.3-.2C24.5,7,26.22,5.83,28,4.78a10,10,0,0,0,1.63-1.16H26.39A10.14,10.14,0,0,1,30.12,3a5.61,5.61,0,0,0,1.64-.16,14.3,14.3,0,0,1,5.53-.06,44.56,44.56,0,0,0,4.62.27,5.74,5.74,0,0,0,1.84-.56c.3-.11.32-.34.17-.64A2,2,0,0,0,41.28.8a7.85,7.85,0,0,0-1.48.8A4.51,4.51,0,0,1,35.38,2a5.76,5.76,0,0,0,4.4-1,4.62,4.62,0,0,1,2.67-1,2.63,2.63,0,0,1,2.67,2,4.7,4.7,0,0,0,1.36,2c.17.18.31.38.47.56l-.1.15-1.37-.37-.36.92c-.83-.93-1.86-.72-2.85-.63a9.4,9.4,0,0,1-4.71-.7,9.16,9.16,0,0,0-4.84-.45,10.38,10.38,0,0,0,4.84,1.63c1.71,0,3.42.14,5.12.27a7.9,7.9,0,0,1,1.73.4c.37.11.71,1.21.53,1.55a.22.22,0,0,1-.11.12c-.81.07-1,.83-1.49,1.35-.29.36-.67.37-1.07,0a7.73,7.73,0,0,0-4.7-2.3,8.25,8.25,0,0,0-6,1.4c-.63.43-1.24.89-2,1.45.81.21,1.47.4,2.14.56a30.4,30.4,0,0,0,9.51.51,40.43,40.43,0,0,1,9.58.44A117.25,117.25,0,0,1,63.13,14a6.57,6.57,0,0,0,2.88.33.44.44,0,0,1,.35.21c.25.8.47,1.61.74,2.55L62,15.46l0,.14c1.58.6,3.16,1.23,4.76,1.79a1.83,1.83,0,0,1,1.15,1.07,17.45,17.45,0,0,0,1,1.82.72.72,0,0,1-.09,1,1,1,0,0,0-.3.51,1,1,0,0,1-1,.88c-.37.06-.72.21-1.09.28a.78.78,0,0,1-1-.75c0-.66-.39-1-.8-1.29A10.44,10.44,0,0,0,60.88,19a14.62,14.62,0,0,1-2.26-1.16.5.5,0,0,0-.43,0,8.18,8.18,0,0,0-3.1,3.05,1.09,1.09,0,0,1-1,.63,21.82,21.82,0,0,0-6,1.47" fill="#3e0213" fill-rule="evenodd"/></g><path d="M55.2,8.53a13.32,13.32,0,0,1,2.33-.38,22.1,22.1,0,0,1,4,.41,6.13,6.13,0,0,0,2.73-.05c.62-.14,1.24-.32,2-.51,0,.86-.58,1.26-1.05,1.93.56-.1,1-.19,1.41-.25a1.82,1.82,0,0,1,.46.06,1.85,1.85,0,0,1-.09.54,6.26,6.26,0,0,1-.61,1,1.56,1.56,0,0,0-.3,1.4c.16.81,0,1.06-.79,1.23a5.07,5.07,0,0,1-3-.21c-1.8-.65-3.61-1.31-5.38-2.07A18.81,18.81,0,0,0,46.35,10.1H46l0-.17c1.21-.3,2.41-.67,3.64-.87,2.79-.47,5.44.27,8.06,1.24,1.13.42,2.24.9,3.37,1.29a3.57,3.57,0,0,0,3.44-.54,6.33,6.33,0,0,1-3.57-1.29,7.92,7.92,0,0,0-5.73-1.08Z" fill="#3e0213" fill-rule="evenodd"/></svg>