<svg class="icon" height="16" viewBox="0 0 15 16" width="15" xmlns="http://www.w3.org/2000/svg"><g transform="translate(.9375)"><path d="m2.62959445 1.00000103h6.47402397c.15514051 0 .27138158.11779095.27138158.25v10.99999997c0 .1322091-.11624107.25-.27138158.25h-7.89473684c-.15514051 0-.27138158-.1177909-.27138158-.25v-9.53534426zm.13569107-.13750028c.18769037-.19019292.19529803-.50667139.01699218-.70687445-.11590093-.13013438-.28182462-.1791085-.43531765-.14521425l-.08134854.02638503c-.17123505.0744488-.2919273.25379214-.2919273.46320292 0 .27614341.20986652.5.46875.5h.18716024zm-.49374696-.82822796c-.05487821.02288763-.10659976.05726788-.15195566.10322852l-1.97368421 2c-.0931549.09439697-.14589869.22544413-.14589869.36249972v9.74999997c0 .696291.54642341 1.25 1.20888158 1.25h7.89473684c.66245817 0 1.20888158-.553709 1.20888158-1.25v-10.99999997c0-.69629095-.54642341-1.25-1.20888158-1.25h-6.66118421c-.04170661 0-.08214104.00580996-.12063074.01671249l-.05619196.02008356z"/><path d="m2.8125 3.00000103h-2.34375c-.25888348 0-.46875.22385762-.46875.5 0 .27614237.20986652.5.46875.5h2.8125c.25888348 0 .46875-.22385763.46875-.5v-3c0-.27614237-.20986652-.5-.46875-.5s-.46875.22385763-.46875.5z"/><path d="m11.4226974 3.00000103h.493421c.1511742 0 .2713816.12668259.2713816.28v11.43999997c0 .1533174-.1202074.28-.2713816.28h-7.89473682c-.12957785 0-.23640463-.0930729-.26428212-.2162149l-.00709946-.0637851c0-.2761423-.20986652-.5-.46875-.5s-.46875.2238577-.46875.5c0 .7083226.54245705 1.28 1.20888158 1.28h7.89473682c.6664245 0 1.2088816-.5716774 1.2088816-1.28v-11.43999997c0-.70832259-.5424571-1.28-1.2088816-1.28h-.493421c-.2588835 0-.46875.22385762-.46875.5 0 .27614237.2098665.5.46875.5z"/><path d="m3.28125 10.000001h4.6875c.25888348 0 .46875-.2238576.46875-.49999997 0-.27614238-.20986652-.5-.46875-.5h-4.6875c-.25888348 0-.46875.22385762-.46875.5 0 .27614237.20986652.49999997.46875.49999997z"/><path d="m3.28125 8.00000103h4.6875c.25888348 0 .46875-.22385763.46875-.5 0-.27614238-.20986652-.5-.46875-.5h-4.6875c-.25888348 0-.46875.22385762-.46875.5 0 .27614237.20986652.5.46875.5z"/><path d="m5.15625 6.00000103h2.8125c.25888348 0 .46875-.22385763.46875-.5 0-.27614238-.20986652-.5-.46875-.5h-2.8125c-.25888348 0-.46875.22385762-.46875.5 0 .27614237.20986652.5.46875.5z"/></g></svg>