<svg class="icon" xmlns="http://www.w3.org/2000/svg" viewBox="0 0 15.69 15.69" aria-hidden="true" role="presentation">
    <path d="M14.18,15.69H1.51a1,1,0,0,1-1-1V7.08a1.39,1.39,0,0,1,.41-1l1.38-1.3.52.54L1.4,6.62a.68.68,0,0,0-.18.46v7.57a.29.29,0,0,0,.29.29H14.18a.29.29,0,0,0,.29-.29V7.08a.64.64,0,0,0-.19-.46L12.91,5.33l.52-.54L14.8,6.08a1.4,1.4,0,0,1,.42,1v7.57A1,1,0,0,1,14.18,15.69Z"/>
    <path d="M10,2.51,8.29.92a.62.62,0,0,0-.85,0L5.76,2.51,5.25,2,6.92.38A1.37,1.37,0,0,1,8.8.37L10.47,2Z"/>
    <path d="M1.11,15.58l-.53-.53,4.47-4.47a1.07,1.07,0,0,1,.73-.31h4.43a1.09,1.09,0,0,1,.77.31l4.14,4.48-.55.51L10.44,11.1a.34.34,0,0,0-.23-.08H5.78a.3.3,0,0,0-.2.1Z"/>
    <rect x="2.64" y="6.58" width="0.75" height="5.47" transform="translate(-6.21 6.02) rotate(-52.44)"/>
    <rect x="10.53" y="8.94" width="4.96" height="0.75" transform="translate(-2.88 11.17) rotate(-42.25)"/>
    <path d="M11.07,11.49,10.34,11H5.67l-.53.18-3-2V3a1,1,0,0,1,1-1h9.33a1,1,0,0,1,1,1V9.14Zm-5.52-1.2h5l.43.26L12.8,8.82V3a.29.29,0,0,0-.29-.29H3.18A.29.29,0,0,0,2.89,3v5.8l2.36,1.61Z"/>
    <path d="M12.51,2.32H3.18A.67.67,0,0,0,2.51,3V9L5.19,10.8l.42-.13h4.84L11,11l2.16-2V3A.67.67,0,0,0,12.51,2.32Zm-8,2h2a.37.37,0,0,1,.38.37A.38.38,0,0,1,6.51,5h-2a.37.37,0,0,1-.37-.38A.36.36,0,0,1,4.51,4.28Zm6.67,3.41H4.51a.38.38,0,0,1,0-.75h6.67a.38.38,0,0,1,0,.75Zm0-1.33H4.51a.38.38,0,0,1,0-.75h6.67a.38.38,0,0,1,0,.75Z"/>
</svg>