<svg class="icon" xmlns="http://www.w3.org/2000/svg" viewBox="0 0 31 31"><path d="M5.1,11l-2,2a2,2,0,0,0-.56,1.4V28.73A1.26,1.26,0,0,0,3.74,30H27.26a1.26,1.26,0,0,0,1.24-1.27V14.36a2,2,0,0,0-.56-1.4l-2-2" fill="none" stroke="#fff" stroke-linecap="square" stroke-width="0.75"/><path d="M19.5,4,16.81,1.51a1.94,1.94,0,0,0-2.62,0L11.5,4" fill="none" stroke="#fff" stroke-linecap="square" stroke-width="0.75"/><path d="M28.5,30l-7.68-8.61A1.2,1.2,0,0,0,19.9,21H11.66a1.17,1.17,0,0,0-.86.39L2.5,30" fill="none" stroke="#fff" stroke-width="0.75"/><path d="M2.5,15l8,7" fill="none" stroke="#fff" stroke-width="0.75"/><path d="M28.5,15l-7,7" fill="none" stroke="#fff" stroke-width="0.75"/><path d="M5.5,18V6.3A1.28,1.28,0,0,1,6.75,5h17.5A1.28,1.28,0,0,1,25.5,6.3V18l-4,4-1.08-.7H11.31l-.78.27Z" fill="#fff" stroke="#fff" stroke-width="0.75"/><path d="M9.5,9h4" fill="none" stroke="#a71d44" stroke-linecap="round" stroke-width="0.75"/><path d="M9.5,12h12" fill="none" stroke="#a71d44" stroke-linecap="round" stroke-width="0.75"/><path d="M9.5,14h12" fill="none" stroke="#a71d44" stroke-linecap="round" stroke-width="0.75"/></svg>
