<svg class="icon" xmlns="http://www.w3.org/2000/svg" viewBox="0 0 28 28" aria-hidden="true" role="presentation">
    <path d="M26.55,19.35c-.58-.61-1.67-1.72-2.61-2.68L22.69,15.4a46.63,46.63,0,0,1-3.16-3.86A28.28,28.28,0,0,0,15.22,6.9a5.43,5.43,0,0,0-.84-.41c.06-.46.12-1.11.17-1.79.06-1,.34-3.45.34-3.48L15,.4,13.4.13a55.68,55.68,0,0,0-4.59,6A14.67,14.67,0,0,0,4.88,7,39.94,39.94,0,0,0,0,9.18v2.07A44.15,44.15,0,0,1,5.48,8.78a17.54,17.54,0,0,1,4.59-.9l.21-.51a17.12,17.12,0,0,1,2.46-3.46,2.25,2.25,0,0,1-.06.67C12.6,5.82,12.44,7,12.44,7l-.1.73L13,8a9.56,9.56,0,0,1,1.15.47A28.1,28.1,0,0,1,18,12.63a45.32,45.32,0,0,0,3.31,4l1.24,1.28c.93.95,2,2,2.58,2.66a3.82,3.82,0,0,1,1,2.63,2.25,2.25,0,0,1-.08.58v0c-.23.78-.74,1.05-1.05,1h-.5l-.3.37a1.47,1.47,0,0,1-.65.45,2,2,0,0,1-1.32,0,1.71,1.71,0,0,1-.63-.82l-.14-.43-6.52-2.3h-.06l-.3-.1-.29.08a4,4,0,0,1-2.55-.25,5.66,5.66,0,0,1-2.16-1.62l-.47-.68-.74.4a11,11,0,0,0-3.45,3c-.39.55-.84,1.23-1.32,1.95-.64,1-1.34,2-1.94,2.8l-.13.19H3.82c.43-.63.89-1.31,1.34-1.95s.91-1.37,1.29-1.9a8.69,8.69,0,0,1,2.19-2A7.43,7.43,0,0,0,11,23.49a6.14,6.14,0,0,0,3.49.4l5.51,2a3.33,3.33,0,0,0,1.38,1.45,3.87,3.87,0,0,0,2.74.14,3.21,3.21,0,0,0,1.24-.74,3.07,3.07,0,0,0,2.49-2.39v-.06a4.64,4.64,0,0,0,.11-.65l0,0v-.86A5.59,5.59,0,0,0,26.55,19.35Z" fill-rule="evenodd"/>
</svg>