<svg class="icon" xmlns="http://www.w3.org/2000/svg" viewBox="0 0 29 29" aria-hidden="true" role="presentation">
    <path d="M10.56,23.31,6.8,24.73l-.13.43a1.65,1.65,0,0,1-.61.84,1.8,1.8,0,0,1-1.27,0,1.52,1.52,0,0,1-.63-.45l-.29-.38H3.4c-.3,0-.79-.25-1-1,0,0,0,0,0-.05v0a2.58,2.58,0,0,1-.07-.59,3.91,3.91,0,0,1,.94-2.67c.55-.62,1.59-1.75,2.49-2.72l1.2-1.29a49,49,0,0,0,3.18-4.1,28.18,28.18,0,0,1,3.7-4.29A9.36,9.36,0,0,1,14.92,8l.68-.26L15.5,7s-.15-1.16-.23-2.43c0-.18,0-.42,0-.68a17.47,17.47,0,0,1,2.36,3.53l.21.52a16,16,0,0,1,4.42.92,40.68,40.68,0,0,1,5.29,2.51V9.21A37.65,37.65,0,0,0,22.8,7,14.21,14.21,0,0,0,19,6.12,55.77,55.77,0,0,0,14.58,0L13.05.27l.09.84s.27,2.56.33,3.54c0,.7.11,1.35.16,1.82a6,6,0,0,0-.81.41,28.72,28.72,0,0,0-4.15,4.73,47.25,47.25,0,0,1-3,3.93L4.43,16.83c-.9,1-1.95,2.11-2.51,2.73a5.85,5.85,0,0,0-1.4,4.33h0a4.33,4.33,0,0,0,.11.66v.06A3.06,3.06,0,0,0,3,27.06a3.22,3.22,0,0,0,1.2.75,3.54,3.54,0,0,0,2.64-.14A3.21,3.21,0,0,0,8.2,26.19l2-.76a5.82,5.82,0,0,1,.34-2.12" fill-rule="evenodd"/>
    <path d="M23.26,25.43a4.68,4.68,0,0,1,1.12,1.14c.22.34.48.76.76,1.21s.49.8.73,1.17h1.8l-.18-.26c-.36-.51-.79-1.21-1.13-1.77s-.56-.89-.79-1.24a6.68,6.68,0,0,0-2.08-1.94l-.58-.34-.37.57a3,3,0,0,1-1.19,1,2.17,2.17,0,0,1-1.38.16L19.75,25l-4.19,1.6-.1.36a.94.94,0,0,1-.28.41.94.94,0,0,1-.64,0,.79.79,0,0,1-.3-.22L14,26.87h-.39c-.09,0-.31-.1-.44-.54a1.69,1.69,0,0,1,0-.33,2.29,2.29,0,0,1,.52-1.53l1.52-1.68.73-.81a30,30,0,0,0,2-2.57,16.73,16.73,0,0,1,2.21-2.62,6.83,6.83,0,0,1,.64-.28l.55-.22-.08-.61s-.08-.61-.13-1.31a8.89,8.89,0,0,1,1.05,1.67l.17.44h.12a9.37,9.37,0,0,1,2.64.56,25.28,25.28,0,0,1,3.19,1.55l.27.15V17L28.4,17a22.77,22.77,0,0,0-2.89-1.37A9,9,0,0,0,23.25,15a38.17,38.17,0,0,0-2.66-3.75l-.07-.08-1.2.22.07.7s.16,1.58.2,2.19c0,.37.06.73.08,1-.17.09-.31.16-.4.22a17.81,17.81,0,0,0-2.57,3,30.21,30.21,0,0,1-1.84,2.42l-.77.85c-.54.6-1.16,1.28-1.49,1.66a3.88,3.88,0,0,0-.9,2.84h0c0,.08.05.37.08.52a2,2,0,0,0,1.55,1.61,2,2,0,0,0,.76.47,2.23,2.23,0,0,0,1.74-.1,2.15,2.15,0,0,0,.86-.93l3.12-1.2a3.69,3.69,0,0,0,2.11-.28,4.57,4.57,0,0,0,1.34-.93" fill-rule="evenodd"/>
</svg>