<svg class="icon" xmlns="http://www.w3.org/2000/svg" viewBox="0 0 26 26" aria-hidden="true" role="presentation">
    <path d="M20,26H6a4,4,0,0,1-4-4V7.15a4,4,0,0,1,4-4H9.15a3.93,3.93,0,0,1,7.7,0H20a4,4,0,0,1,4,4V22A4,4,0,0,1,20,26ZM6,5.15a2,2,0,0,0-2,2V22a2,2,0,0,0,2,2H20a2,2,0,0,0,2-2V7.15a2,2,0,0,0-2-2H15.21l-.32-1.6a1.93,1.93,0,0,0-3.78,0h0l-.32,1.6Z"/>
    <path d="M19.21,10.57H6.79A.79.79,0,1,1,6.79,9H19.21a.79.79,0,1,1,0,1.57Z"/>
    <path d="M19.21,15.29H6.79a.79.79,0,0,1,0-1.58H19.21a.79.79,0,0,1,0,1.58Z"/>
    <path d="M14.55,20H6.79a.79.79,0,1,1,0-1.57h7.76a.79.79,0,0,1,0,1.57Z"/>
    <path d="M13,5.85a1.5,1.5,0,1,1,1.5-1.5A1.5,1.5,0,0,1,13,5.85Zm0-2a.5.5,0,0,0-.5.5.5.5,0,1,0,1,0A.5.5,0,0,0,13,3.85Z"/>
</svg>