<svg class="icon" xmlns="http://www.w3.org/2000/svg" viewBox="0 0 14.98 14.98" aria-hidden="true" role="presentation">
    <path d="M11.23,14.73h-9A1.26,1.26,0,0,1,1,13.46V4.31A1.26,1.26,0,0,1,2.25,3H3.5a.26.26,0,0,1,.25.26.25.25,0,0,1-.25.25H2.25a.76.76,0,0,0-.75.76v9.15a.76.76,0,0,0,.75.76h9a.75.75,0,0,0,.75-.76V7.36a.25.25,0,1,1,.5,0v6.1A1.26,1.26,0,0,1,11.23,14.73Z"/>
    <path d="M11.23,15h-9a1.51,1.51,0,0,1-1.5-1.52V4.31a1.52,1.52,0,0,1,1.5-1.52H3.5A.51.51,0,0,1,4,3.3a.5.5,0,0,1-.5.5H2.25a.51.51,0,0,0-.5.51v9.15a.51.51,0,0,0,.5.51h9a.5.5,0,0,0,.5-.51V7.36a.5.5,0,0,1,.5-.5.5.5,0,0,1,.5.5v6.1A1.51,1.51,0,0,1,11.23,15ZM1.31,13.8a1,1,0,0,0,.94.68h9a1,1,0,0,0,.94-.68,1,1,0,0,1-.94.67h-9A1,1,0,0,1,1.31,13.8ZM2.25,3.29A1,1,0,0,0,1.31,4a1,1,0,0,1,.94-.68h0Z"/>
    <path d="M4.69,8.58H4.64a.22.22,0,0,1-.17-.22C4.47,2.62,7,1.83,9.78,1.83H10V.48a.24.24,0,0,1,.12-.21.23.23,0,0,1,.24,0L13.9,3.23A.21.21,0,0,1,14,3.4a.25.25,0,0,1-.08.18L10.36,6.5a.21.21,0,0,1-.24,0,.23.23,0,0,1-.12-.2V5H9.78C7.1,5,5.93,6.31,4.89,8.45A.23.23,0,0,1,4.69,8.58Zm5.09-6.3c-2.81,0-4.62.88-4.84,5.13A5.06,5.06,0,0,1,9.78,4.53h.44a.22.22,0,0,1,.22.22V5.86l3-2.46L10.44,1v1.1a.22.22,0,0,1-.22.23Z"/>
    <path d="M4.69,8.83H4.58a.47.47,0,0,1-.36-.47C4.22,2.4,7,1.58,9.75,1.58V.48a.47.47,0,0,1,.77-.37L14.05,3a.51.51,0,0,1,.18.37.48.48,0,0,1-.17.37L10.52,6.7a.48.48,0,0,1-.5.06.47.47,0,0,1-.27-.43V5.23c-2.54,0-3.62,1.23-4.64,3.33A.46.46,0,0,1,4.69,8.83Zm0-1.42c0,.26,0,.54,0,.82.12-.25.25-.48.38-.71Zm5-4.88c-2.45,0-4.08.68-4.51,3.9A5.14,5.14,0,0,1,9.78,4.28h.44a.47.47,0,0,1,.47.47v.57L13,3.4,10.69,1.48v.57a.48.48,0,0,1-.47.48Z"/>
</svg>