<svg class="icon" xmlns="http://www.w3.org/2000/svg">
    <g id="Desktop" stroke="none" stroke-width="1" fill="none" fill-rule="evenodd" stroke-linecap="round" stroke-linejoin="round">
        <g id="13.-Horse-Media" transform="translate(-1170.000000, -882.000000)" stroke-width="2">
            <g id="image-video_film" transform="translate(1171.000000, 883.000000)">
                <rect id="Rectangle-path" x="4" y="2" width="4" height="4"></rect>
                <rect id="Rectangle-path" x="4" y="10" width="4" height="4"></rect>
                <rect id="Rectangle-path" x="4" y="18" width="4" height="4"></rect>
                <rect id="Rectangle-path" x="4" y="26" width="4" height="4"></rect>
                <rect id="Rectangle-path" x="4" y="34" width="4" height="4"></rect>
                <path d="M0,0 L0,40" id="Shape"></path>
                <rect id="Rectangle-path" x="36" y="34" width="4" height="4"></rect>
                <rect id="Rectangle-path" x="36" y="26" width="4" height="4"></rect>
                <rect id="Rectangle-path" x="36" y="18" width="4" height="4"></rect>
                <rect id="Rectangle-path" x="36" y="10" width="4" height="4"></rect>
                <rect id="Rectangle-path" x="36" y="2" width="4" height="4"></rect>
                <path d="M44,40 L44,0" id="Shape"></path>
                <path d="M32,0 L32,4 C32,5.1045694 31.1045685,6 30,6 L14,6 C12.8954306,6 12,5.1045694 12,4 L12,0" id="Shape"></path>
                <path d="M12,22 L12,12 C12,10.8954306 12.8954306,10 14,10 L30,10 C31.1045685,10 32,10.8954306 32,12 L32,22 C32,23.1045704 31.1045685,24 30,24 L14,24 C12.8954306,24 12,23.1045704 12,22 Z" id="Shape"></path>
                <path d="M12,40 L12,30 C12,28.8954315 12.8954306,28 14,28 L30,28 C31.1045685,28 32,28.8954315 32,30 L32,40" id="Shape"></path>
            </g>
        </g>
    </g>
</svg>