<svg class="icon" xmlns="http://www.w3.org/2000/svg" viewBox="0 0 61 61" aria-hidden="true" role="presentation">
    <path d="M43,47.44A24,24,0,1,1,49.6,26h2a26,26,0,1,0-4,19H45.12A24.88,24.88,0,0,1,43,47.44Z"/>
    <path d="M27,29.94h8.94a2.21,2.21,0,0,0-.86-1.29L23.08,20a2.21,2.21,0,0,0-3.08.5,2.17,2.17,0,0,0-.42,1.3V39.11a2.2,2.2,0,0,0,2.2,2.21,2.16,2.16,0,0,0,1.3-.41L27,38.07Z" fill-rule="evenodd"/>
    <path d="M59,25.44H27a2,2,0,0,0-2,2v16a2,2,0,0,0,2,2H59a2,2,0,0,0,2-2v-16A2,2,0,0,0,59,25.44Zm-23.21,11c-.38,1.14-.77,2.16-1.17,3.05H33.56c-.24-.62-.5-1.34-.77-2.14s-.52-1.63-.75-2.5c-.22.87-.47,1.7-.74,2.5s-.52,1.52-.76,2.14H29.48c-.4-.89-.79-1.91-1.17-3.05s-.74-2.38-1.08-3.71h1.3c.09.41.19.85.32,1.33l.38,1.43c.13.48.27.93.42,1.37s.29.83.42,1.16c.15-.41.29-.84.43-1.29s.28-.92.41-1.38.26-.92.37-1.37.22-.86.31-1.25h1c.08.39.17.81.29,1.25s.23.91.36,1.37.27.92.41,1.38.29.88.43,1.29c.13-.33.27-.71.41-1.16s.29-.9.43-1.37.27-1,.39-1.43.22-.92.31-1.33h1.25C36.53,34,36.17,35.24,35.79,36.44Zm10.32,0c-.38,1.14-.77,2.16-1.17,3.05h-1c-.25-.62-.5-1.34-.78-2.14s-.52-1.63-.74-2.5c-.23.87-.48,1.7-.75,2.5s-.52,1.52-.76,2.14H39.8c-.39-.89-.78-1.91-1.17-3.05s-.74-2.38-1.07-3.71h1.3c.08.41.19.85.31,1.33s.25.95.38,1.43.28.93.42,1.37.29.83.42,1.16c.15-.41.29-.84.44-1.29s.27-.92.4-1.38.26-.92.38-1.37.21-.86.3-1.25h1c.08.39.17.81.29,1.25s.23.91.36,1.37.27.92.41,1.38.29.88.44,1.29c.13-.33.26-.71.41-1.16s.28-.9.42-1.37.27-1,.39-1.43.22-.92.31-1.33h1.25C46.85,34,46.49,35.24,46.11,36.44Zm10.32,0c-.38,1.14-.77,2.16-1.17,3.05h-1c-.24-.62-.5-1.34-.77-2.14s-.53-1.63-.75-2.5c-.23.87-.48,1.7-.74,2.5s-.53,1.52-.77,2.14h-1c-.4-.89-.79-1.91-1.17-3.05s-.75-2.38-1.08-3.71h1.3c.08.41.19.85.31,1.33s.25.95.38,1.43.28.93.42,1.37.29.83.42,1.16c.15-.41.29-.84.44-1.29s.28-.92.41-1.38.25-.92.37-1.37.22-.86.3-1.25h1c.08.39.18.81.29,1.25s.23.91.36,1.37.27.92.41,1.38.29.88.44,1.29c.13-.33.27-.71.41-1.16s.28-.9.42-1.37.27-1,.39-1.43.23-.92.31-1.33h1.25C57.17,34,56.81,35.24,56.43,36.44Z" fill-rule="evenodd"/>
</svg>