<?xml version="1.0" standalone="no"?>
<!DOCTYPE svg PUBLIC "-//W3C//DTD SVG 20010904//EN"
 "http://www.w3.org/TR/2001/REC-SVG-20010904/DTD/svg10.dtd">
<svg version="1.0" xmlns="http://www.w3.org/2000/svg"
 width="500.000000pt" height="500.000000pt" viewBox="0 0 500.000000 500.000000"
 preserveAspectRatio="xMidYMid meet">
<metadata>
Created by potrace 1.11, written by Peter Selinger 2001-2013
</metadata>
<g transform="translate(0.000000,500.000000) scale(0.100000,-0.100000)"
fill="#000000" stroke="none">
<path d="M2308 4995 c-2 -2 -37 -6 -78 -10 -62 -6 -210 -32 -340 -60 -83 -19
-265 -79 -350 -118 -85 -38 -115 -51 -120 -52 -3 0 -10 -4 -16 -8 -7 -4 -45
-24 -85 -45 -91 -48 -183 -104 -187 -114 -2 -4 -8 -8 -13 -8 -9 0 -148 -98
-175 -124 -7 -6 -24 -20 -40 -31 -43 -31 -266 -253 -320 -320 -27 -33 -52 -62
-55 -65 -5 -5 -128 -182 -156 -226 -7 -10 -25 -41 -39 -69 -15 -27 -30 -51
-35 -53 -5 -2 -9 -8 -9 -13 0 -5 -20 -51 -45 -101 -82 -172 -163 -407 -189
-553 -3 -16 -8 -41 -11 -55 -3 -14 -8 -43 -11 -65 -3 -22 -7 -46 -9 -53 -26
-78 -26 -626 0 -704 2 -7 6 -31 9 -53 3 -22 14 -83 26 -135 12 -52 23 -104 26
-114 14 -71 107 -314 164 -431 71 -144 147 -277 162 -283 4 -2 8 -8 8 -14 0
-42 410 -508 447 -508 7 0 13 -4 13 -9 0 -11 129 -110 230 -178 71 -47 256
-157 272 -161 5 -1 36 -15 70 -31 78 -37 268 -111 268 -105 0 3 9 0 21 -6 11
-6 28 -13 37 -15 9 -2 42 -11 74 -19 31 -8 67 -17 80 -20 12 -2 30 -7 38 -10
8 -3 31 -7 50 -10 19 -3 44 -7 55 -10 101 -20 231 -30 395 -30 176 -1 351 8
383 19 7 2 30 6 52 9 112 12 339 75 520 143 132 50 461 228 473 256 2 4 8 7
13 7 6 0 15 5 22 10 7 6 39 30 72 55 33 25 78 60 100 77 57 46 274 264 315
317 19 24 47 59 63 76 15 18 27 37 27 43 0 6 4 12 9 14 12 4 141 203 141 217
0 6 4 11 9 11 5 0 11 8 14 18 3 9 15 33 26 52 52 92 158 345 176 420 2 8 13
48 25 89 23 81 48 196 56 251 2 19 7 46 9 60 27 150 27 537 0 710 -14 88 -48
246 -60 281 -8 22 -12 39 -10 39 6 0 -58 186 -95 275 -79 191 -210 417 -332
574 -28 34 -57 73 -66 84 -33 42 -278 283 -317 312 -22 17 -53 42 -70 57 -16
16 -35 28 -42 28 -6 0 -13 4 -15 9 -7 18 -201 141 -298 188 -30 15 -58 31 -61
36 -3 5 -10 9 -15 10 -5 0 -36 13 -69 27 -63 28 -93 41 -110 46 -5 2 -55 19
-110 39 -142 50 -320 94 -455 110 -30 4 -64 10 -75 12 -22 6 -462 13 -467 8z"/>
</g>
</svg>
