<svg xmlns="http://www.w3.org/2000/svg" xmlns:xlink="http://www.w3.org/1999/xlink" viewBox="0 0 174 99"><defs><mask id="a" x="120.08" y="75.04" width="31.84" height="23.96" maskUnits="userSpaceOnUse"><polygon points="120.08 75.04 151.92 75.04 151.92 99 120.08 99 120.08 75.04" fill="#fff" fill-rule="evenodd"/></mask><mask id="b" x="0" y="0" width="173.97" height="61.94" maskUnits="userSpaceOnUse"><polygon points="0 0 173.97 0 173.97 61.94 0 61.94 0 0" fill="#fff" fill-rule="evenodd"/></mask></defs><title>brand-logo-white</title><path d="M34.7,85.83c.12,0,.12-.07.1-.17L32.55,79c-.12-.37-.24-.37-.35,0l-2.08,6.66c-.05.12,0,.17.07.17ZM32.24,76c.29-.81.38-1,.52-1s.24.12.52.89c.36.94,4.07,11.13,5.51,14.88.85,2.19,1.53,2.59,2,2.74a3,3,0,0,0,.94.14c.15,0,.24,0,.24.15s-.21.2-.47.2-2.08,0-3.71,0c-.45,0-.71,0-.71-.17s.07-.15.17-.17.28-.28.14-.67l-2.2-6.07c0-.1-.09-.15-.21-.15H29.93c-.12,0-.19.07-.24.2l-1.41,4.37a5.16,5.16,0,0,0-.34,1.65c0,.49.5.71.9.71h.24c.16,0,.23,0,.23.15s-.14.2-.35.2c-.57,0-1.58-.07-1.84-.07s-1.56.07-2.67.07c-.31,0-.45,0-.45-.2s.09-.15.21-.15l.69,0c1.08-.15,1.56-1.09,2-2.32Z" fill="#fff" fill-rule="evenodd"/><path d="M49.32,87.1c0,3.49.1,5,.56,5.43s1.06.55,3,.55c1.34,0,2.45,0,3.05-.72a3.13,3.13,0,0,0,.66-1.42c0-.19.08-.31.23-.31s.15.1.15.36a14.56,14.56,0,0,1-.38,2.37c-.18.55-.25.64-1.59.64-3.64,0-5.31-.14-6.77-.14-.23,0-1.72.07-2.48.07-.27,0-.4-.05-.4-.19s0-.14.2-.14a4,4,0,0,0,.76-.1c.5-.09.63-.61.73-1.3.13-1,.13-2.87.13-5.15V82.88c0-3.7,0-4.37-.05-5.13s-.26-1.18-1.09-1.35a5.87,5.87,0,0,0-.86-.07c-.1,0-.2,0-.2-.14s.13-.19.4-.19c1.14,0,2.73.07,2.86.07S50.23,76,51,76c.28,0,.4,0,.4.19s-.1.14-.2.14a7.68,7.68,0,0,0-.83.07c-.74.12-.94.52-1,1.35s0,1.43,0,5.13Z" fill="#fff" fill-rule="evenodd"/><path d="M66.35,93.35c-.33-.17-.35-.27-.35-.93,0-1.21.09-2.18.12-2.56s.07-.39.18-.39.17.07.17.26a4.45,4.45,0,0,0,.07.9c.35,1.79,1.89,2.47,3.46,2.47a3.17,3.17,0,0,0,3.34-3.22c0-1.67-.68-2.64-2.69-4.36l-1.05-.9c-2.48-2.11-3-3.61-3-5.26,0-2.59,1.87-4.36,4.84-4.36a9,9,0,0,1,2.17.24,3.59,3.59,0,0,0,.82.12c.19,0,.24,0,.24.17s-.1.92-.1,2.57c0,.39,0,.56-.16.56s-.16-.12-.19-.32a4.29,4.29,0,0,0-.3-1.21c-.14-.26-.77-1.28-2.92-1.28a2.7,2.7,0,0,0-2.88,2.81c0,1.38.66,2.2,2.85,4.07l.66.53C74.35,85.52,75,87,75,89a5.08,5.08,0,0,1-2,4,5.94,5.94,0,0,1-3.53,1,6.93,6.93,0,0,1-3.13-.65" fill="#fff" fill-rule="evenodd"/><path d="M95.78,87.1c0,2.28,0,4.16.12,5.16.07.69.2,1.22.89,1.31a9.07,9.07,0,0,0,1,.1c.13,0,.18.07.18.14s-.11.19-.37.19c-1.25,0-2.69-.07-2.81-.07s-1.55.07-2.23.07c-.25,0-.37,0-.37-.19s0-.14.18-.14a3.28,3.28,0,0,0,.69-.1c.46-.09.57-.62.66-1.31.12-1,.12-2.88.12-5.16V84.6a.14.14,0,0,0-.14-.15H84c-.07,0-.13,0-.13.15v2.5c0,2.28,0,4.16.11,5.16.07.69.21,1.22.89,1.31a9.07,9.07,0,0,0,1,.1c.14,0,.18.07.18.14S86,94,85.76,94c-1.26,0-2.7-.07-2.81-.07s-1.56.07-2.24.07c-.25,0-.37,0-.37-.19s0-.14.19-.14a3.19,3.19,0,0,0,.68-.1c.46-.09.57-.62.66-1.31.12-1,.12-2.88.12-5.16V82.9c0-3.71,0-4.38,0-5.14s-.23-1.19-1-1.36a4.81,4.81,0,0,0-.78-.07c-.09,0-.18,0-.18-.14s.11-.19.37-.19c1,0,2.46.07,2.58.07S84.5,76,85.19,76c.25,0,.36,0,.36.19s-.09.14-.18.14a4.09,4.09,0,0,0-.57.07c-.62.12-.8.53-.85,1.36s0,1.43,0,5.14v.5c0,.12.06.15.13.15h9.69c.07,0,.14,0,.14-.15v-.5c0-3.71,0-4.38-.05-5.14s-.23-1.19-1-1.36a4.92,4.92,0,0,0-.78-.07c-.09,0-.18,0-.18-.14S92,76,92.24,76c1,0,2.47.07,2.58.07S96.38,76,97.06,76c.25,0,.37,0,.37.19s-.09.14-.18.14a4.09,4.09,0,0,0-.57.07c-.62.12-.8.53-.85,1.36s0,1.43,0,5.14Z" fill="#fff" fill-rule="evenodd"/><path d="M111.7,85.83c.12,0,.12-.07.1-.17L109.55,79c-.12-.37-.24-.37-.35,0l-2.08,6.66c-.05.12,0,.17.07.17ZM109.24,76c.29-.81.38-1,.52-1s.24.12.52.89c.36.94,4.07,11.13,5.51,14.88.85,2.19,1.53,2.59,2,2.74a3,3,0,0,0,.94.14c.15,0,.24,0,.24.15s-.21.2-.47.2-2.08,0-3.71,0c-.45,0-.71,0-.71-.17s.07-.15.17-.17.28-.28.14-.67l-2.2-6.07c0-.1-.09-.15-.21-.15h-5.08c-.12,0-.19.07-.24.2l-1.41,4.37a5.16,5.16,0,0,0-.34,1.65c0,.49.5.71.9.71h.24c.16,0,.23,0,.23.15s-.14.2-.35.2c-.57,0-1.58-.07-1.84-.07s-1.56.07-2.67.07c-.31,0-.45,0-.45-.2s.09-.15.21-.15l.69,0c1.08-.15,1.56-1.09,2-2.32Z" fill="#fff" fill-rule="evenodd"/><g mask="url(#a)"><path d="M129.17,93.33c2,0,6.05-1.27,6.05-8.41,0-5.89-3.2-9-6.66-9-3.66,0-6.4,2.7-6.4,8.07C122.16,89.66,125.23,93.33,129.17,93.33Zm2.92.1a7.76,7.76,0,0,1-3.44.84c-6.07,0-8.57-5.23-8.57-9.64,0-4,2.59-9.59,8.63-9.59,4.93,0,8.62,3.5,8.62,9.19a10.46,10.46,0,0,1-3.88,8.25l4.49,2.6c4.8,2.77,8.13,2.89,9.22,2.89a11.18,11.18,0,0,0,4.32-1,1.09,1.09,0,0,1,.31-.09.13.13,0,0,1,.13.14c0,.1,0,.17-.18.25A15.2,15.2,0,0,1,144.8,99c-2.65,0-5.48-1.1-9-3.29Z" fill="#fff" fill-rule="evenodd"/></g><path d="M150.7,85.83c.12,0,.12-.07.1-.17L148.55,79c-.12-.37-.24-.37-.35,0l-2.08,6.66c-.05.12,0,.17.07.17ZM148.24,76c.29-.81.38-1,.52-1s.24.12.52.89c.36.94,4.07,11.13,5.51,14.88.85,2.19,1.53,2.59,2,2.74a3,3,0,0,0,.94.14c.15,0,.24,0,.24.15s-.21.2-.47.2-2.08,0-3.71,0c-.45,0-.71,0-.71-.17s.07-.15.17-.17.28-.28.14-.67l-2.2-6.07c-.05-.1-.09-.15-.21-.15h-5.08c-.12,0-.19.07-.24.2l-1.41,4.37a5.16,5.16,0,0,0-.34,1.65c0,.49.5.71.9.71h.24c.16,0,.23,0,.23.15s-.14.2-.35.2c-.57,0-1.58-.07-1.84-.07s-1.56.07-2.67.07c-.31,0-.45,0-.45-.2s.09-.15.21-.15l.69,0c1.08-.15,1.56-1.09,2-2.32Z" fill="#fff" fill-rule="evenodd"/><path d="M164.88,85.91c0,1.83,0,4.77,0,5.13.07,1.16.07,1.49.79,1.85a5.49,5.49,0,0,0,2,.35A3.13,3.13,0,0,0,171,89.87a5.72,5.72,0,0,0-2.25-4.74,3.84,3.84,0,0,0-1.92-.69c-.31,0-1.47,0-1.81,0-.1,0-.14,0-.14.16Zm0-2.51c0,.17,0,.21.16.26a8.17,8.17,0,0,0,1.41.1c1.3,0,1.63-.05,2.12-.62a3.75,3.75,0,0,0,.83-2.4c0-2-.86-4.08-3.13-4.08a5.49,5.49,0,0,0-1.12.12c-.2,0-.27.12-.27.26ZM163,82.88c0-3.7,0-4.37-.05-5.13s-.23-1.18-1-1.35a4.92,4.92,0,0,0-.78-.07c-.1,0-.19,0-.19-.14s.12-.19.37-.19c1,0,2.51.07,2.62.07.56,0,1.47-.07,2.53-.07,3.81,0,4.65,2.37,4.65,3.56,0,1.94-1.09,3.1-2.19,4.27a5.5,5.5,0,0,1,4,5c0,2.54-1.95,5.17-5.92,5.17-.53,0-2.9-.14-3.09-.14s-1.57.07-2.27.07c-.26,0-.37-.05-.37-.19s0-.14.18-.14a3.38,3.38,0,0,0,.7-.1c.46-.09.58-.61.67-1.3.12-1,.12-2.87.12-5.15Z" fill="#fff" fill-rule="evenodd"/><g mask="url(#b)"><path d="M83.75,33.13C86,33,88.27,33,90.49,32.62c3.93-.66,7.8-1.64,11.73-2.32,4.55-.79,9.13-1.39,12.93-2a69.17,69.17,0,0,0-31.4,4.79M50.29,45.41l0,.39C64.82,49.13,79,54.08,93.77,56.66c-2.83-1.12-5.68-2.2-8.53-3.26C78,50.71,70.87,47.59,63.13,46.64c-4.27-.53-8.56-.83-12.84-1.23m69.36,7.35c-14-4-27.78-7.16-42.15-6.43,13.61,4.53,27.33,8.26,42.15,6.43m-27.73-25a7.08,7.08,0,0,0-.76-.15,72.82,72.82,0,0,1-17.48-3.28,2.42,2.42,0,0,0-1.61.32C70,25.69,68,26.89,66,28c-1.48.77-3,1.42-4.67,2.18a2.36,2.36,0,0,0,.61.33Q70.36,31.75,78.84,33a2.12,2.12,0,0,0,1.06-.1c3.92-1.67,7.84-3.38,12-5.19m29.36,29.37c2.8-.51,5.59-1.09,8.41-1.51,2.24-.33,4.51-.46,6.77-.68.8-.08,1.17.21,1.08,1.11-.36,3.4.52,2.68-2.85,3.33a133.91,133.91,0,0,1-30.36,2.53c-10.61-.38-20.84-2.76-31-5.68-12-3.44-24-6.8-36-10-2-.53-4.33-.14-6.47.12-3.92.47-7.81,1.15-11.72,1.74-.3,0-.61,0-.91.07l-.07-.34L29.86,45v-.29c-2.44,0-4.89,0-7.33,0s-5.08.16-7.62.35-5,.49-7.45.8A73.52,73.52,0,0,1,0,46.65c3.28-.8,6.55-1.67,9.85-2.39,9.49-2.07,19-1.84,28.59-.57,2.37.32,4.86-.24,7.3-.38,8.82-.5,17.6-.45,26.29,1.56,1.51.35,3.21-.31,4.83-.36,4.43-.14,8.87-.21,13.31-.31a3.32,3.32,0,0,0,1.08-.12c-9.86-3.51-20-3.17-30.47-2.07.39-.24.53-.36.69-.43s.35-.1.53-.16c6.56-1.94,13.26-2,20-1.52,7.07.47,13.82,2.58,20.67,4.17a91.63,91.63,0,0,0,20.94,2.45c5.06,0,9.87-1.35,14.7-2.66,2.32-.63,4.68-1.1,7-1.64.34-.08.68-.18,1.28-.34a79.33,79.33,0,0,0-26.43-.36c-8.85,1.49-17.56.58-26.23-1.32a22,22,0,0,1-4.28-1.3l5.76.59a68.77,68.77,0,0,0,22-1.64,94.5,94.5,0,0,1,24.76-2.26.64.64,0,0,0,.57-.26c-2-.37-4.09-.88-6.16-1.08-6.55-.62-13.1-1.24-19.67-1.64-5.38-.32-10.67.67-15.95,1.66a79.5,79.5,0,0,1-23.6,1.12,4.84,4.84,0,0,0-1.71.26c-.7.19-1.38.48-2.07.71-.06,0-.16,0-.31-.09l1.82-1.16c-3.54-.71-6.82-1.33-10.09-2-2.4-.51-4.78-1.54-7.17-1.53s-4.75,1.12-7.15,1.62c-7.56,1.6-18.55,1.6-25.31,0,9.65.37,19.32,1,29.06-2.41-9-2.77-17.69-3.26-26.41-.42,4.9-2.67,12.9-3.78,19-2.73,3.18.54,6.34,1.17,9.52,1.73a2.23,2.23,0,0,0,1.31-.05c4-2,7.93-4.13,11.88-6.21.1,0,.16-.2.25-.3-3-2-7.64-4-13.19-2.09A8.19,8.19,0,0,1,63,19.34a27.55,27.55,0,0,1,6.38,1.75,3.39,3.39,0,0,0,4.23-.7,42.8,42.8,0,0,1,4.8-3.9c1.63-1.16,3.39-2.12,5.11-3.18-1.19-2.39-5-3.85-7.39-2.74-4,1.86-8,3.82-12,5.56a15.25,15.25,0,0,1-4.51.95,8.74,8.74,0,0,1-3.28-.5c5.52.74,9.87-2.13,14.29-4.73A25.25,25.25,0,0,0,74.68,9H66.55A26.06,26.06,0,0,1,76,7.5a15.41,15.41,0,0,0,4.13-.4c4.65-1.29,9.27-.66,13.93-.17a110.87,110.87,0,0,0,11.66.69c1.55,0,3.11-.85,4.64-1.4.76-.27.79-.85.43-1.58C109.41,2,107.09.94,104.09,2a18.49,18.49,0,0,0-3.72,2,11.53,11.53,0,0,1-11.15.86,14.72,14.72,0,0,0,11.1-2.45A11.67,11.67,0,0,1,107,0a6.58,6.58,0,0,1,6.73,4.86,11.89,11.89,0,0,0,3.44,5c.42.43.79.92,1.18,1.38l-.24.38-3.46-.93L113.78,13c-2.1-2.3-4.7-1.8-7.2-1.56A23.89,23.89,0,0,1,94.72,9.69c-3.83-1.63-7.87-1.61-12.2-1.11,4,2.18,7.78,3.95,12.19,4s8.62.35,12.93.67a21.52,21.52,0,0,1,4.36,1c.91.28,1.79,3,1.34,3.84-.07.12-.18.28-.28.29-2.06.18-2.66,2.06-3.76,3.36-.75.9-1.7.91-2.7-.12A19.77,19.77,0,0,0,94.74,16a21.16,21.16,0,0,0-15.21,3.47c-1.59,1.06-3.12,2.21-5,3.59,2,.52,3.7,1,5.38,1.39,7.92,1.88,16,1.85,24,1.28A103.41,103.41,0,0,1,128,26.75c10.62,1.73,20.83,5.05,31.17,7.87a16.68,16.68,0,0,0,7.25.82,1.09,1.09,0,0,1,.89.53c.64,2,1.2,4,1.88,6.31l-12.85-3.94c0,.11-.07.22-.1.34,4,1.49,8,3.06,12,4.44a4.6,4.6,0,0,1,2.88,2.67,47.35,47.35,0,0,0,2.39,4.51,1.74,1.74,0,0,1-.22,2.47,2.53,2.53,0,0,0-.76,1.28,2.48,2.48,0,0,1-2.46,2.16c-.93.15-1.83.52-2.76.72a2,2,0,0,1-2.48-1.88c.07-1.64-1-2.39-2-3.21a27.21,27.21,0,0,0-9.35-4.63c-2-.59-3.78-1.91-5.69-2.86a1.3,1.3,0,0,0-1.07,0,20.48,20.48,0,0,0-7.83,7.57,2.73,2.73,0,0,1-2.58,1.56c-5.2.34-10.14,1.91-15.06,3.65" fill="#fff" fill-rule="evenodd"/></g><path d="M138.21,19.25a33.29,33.29,0,0,1,5.89-.89,57.91,57.91,0,0,1,10,.95,16.64,16.64,0,0,0,6.89-.12c1.57-.33,3.13-.75,4.92-1.19,0,2-1.44,2.95-2.63,4.49,1.41-.23,2.48-.43,3.55-.56a4.69,4.69,0,0,1,1.16.13,3.92,3.92,0,0,1-.23,1.26,14.35,14.35,0,0,1-1.54,2.24,3.44,3.44,0,0,0-.76,3.27c.41,1.89,0,2.46-2,2.88a14.11,14.11,0,0,1-7.46-.5c-4.56-1.52-9.12-3.07-13.59-4.84a51.06,51.06,0,0,0-26.55-3.48,7.14,7.14,0,0,1-.8,0c0-.13,0-.27-.08-.4,3.06-.69,6.09-1.56,9.18-2,7-1.09,13.75.64,20.35,2.9,2.85,1,5.65,2.1,8.52,3a9.57,9.57,0,0,0,8.67-1.27c-3.57.11-6.26-1.44-9-3a21.41,21.41,0,0,0-14.46-2.53Z" fill="#fff" fill-rule="evenodd"/></svg>