<svg class="icon" xmlns="http://www.w3.org/2000/svg" viewBox="0 0 28.31 28.31" aria-hidden="true" role="presentation">
    <circle cx="20.23" cy="4.31" r="3.23"/>
    <circle cx="7.54" cy="14.31" r="3.23"/>
    <circle cx="20.23" cy="24" r="3.23"/>
    <path d="M1.08,3.08H27.23a1.07,1.07,0,0,1,1.08,1.07h0a1.08,1.08,0,0,1-1.08,1.08H1.08A1.08,1.08,0,0,1,0,4.15H0A1.07,1.07,0,0,1,1.08,3.08Z" fill-rule="evenodd"/>
    <path d="M1.08,13.08H27.23a1.07,1.07,0,0,1,1.08,1.07h0a1.08,1.08,0,0,1-1.08,1.08H1.08A1.08,1.08,0,0,1,0,14.15H0A1.07,1.07,0,0,1,1.08,13.08Z" fill-rule="evenodd"/>
    <path d="M1.08,22.77H27.23a1.08,1.08,0,0,1,1.08,1.08h0a1.07,1.07,0,0,1-1.08,1.07H1.08A1.07,1.07,0,0,1,0,23.85H0A1.08,1.08,0,0,1,1.08,22.77Z" fill-rule="evenodd"/>
</svg>