<svg class="icon" xmlns="http://www.w3.org/2000/svg" viewBox="0 0 52 52" aria-hidden="true" role="presentation">
    <path d="M48.62,0H3.38A3.4,3.4,0,0,0,0,3.38V48.62A3.4,3.4,0,0,0,3.38,52H48.62A3.4,3.4,0,0,0,52,48.62V3.38A3.4,3.4,0,0,0,48.62,0ZM3.38,2H48.62A1.38,1.38,0,0,1,50,3.38V39.32h-.19c-3.49,0-5.32-3.23-7.27-6.64-2-3.59-4.35-7.65-9-7.65s-7,4.06-9,7.65c-1.94,3.41-3.78,6.64-7.27,6.64S11.94,36.06,10,32.65s-4-7-8-7.58V3.38A1.38,1.38,0,0,1,3.38,2ZM48.62,50H3.38A1.38,1.38,0,0,1,2,48.62V27.1c2.85.56,4.51,3.47,6.26,6.54,2,3.58,4.36,7.65,9,7.65s7-4.07,9-7.65C28.21,30.22,30.05,27,33.54,27s5.32,3.22,7.26,6.64c2.05,3.58,4.36,7.65,9,7.65H50v7.37A1.39,1.39,0,0,1,48.62,50Z"/>
    <path d="M38.5,19.86a6.36,6.36,0,1,0-6.36-6.36A6.36,6.36,0,0,0,38.5,19.86Zm0-10.72a4.36,4.36,0,1,1-4.36,4.36A4.36,4.36,0,0,1,38.5,9.14Z"/>
</svg>