<svg class="icon" xmlns="http://www.w3.org/2000/svg" viewBox="0 0 47.8 40.8"><path d="M33.38,38.35a45.51,45.51,0,0,1,.7-5.78,24.6,24.6,0,0,1-2.69-.14,24.26,24.26,0,0,1-.56,5.92h.79l.27,2.45h3a3.84,3.84,0,0,0-1.46-2.45"/><polygon points="17.26 11.69 47.8 11.69 47.8 40.8 17.26 40.8 17.26 11.69" fill="none"/><path d="M47.72,17.4c-.2-.72-2.2-1.93-2.2-1.93s-1-.7-1.16-.78-.22-.38-.49-.61a11.17,11.17,0,0,0-1.47-.74A3.14,3.14,0,0,0,42,11.69s-.11.41-.29.89a2.69,2.69,0,0,0-.28-.71,7.93,7.93,0,0,1-.61,1.6,3,3,0,0,0-.58.56,29.3,29.3,0,0,0-2.7,4.34c-.34.64-.67,1.29-1,1.92-.46.86-1,2-2.09,2.13a10.14,10.14,0,0,1-1.34.08c-3.39,0-6.25-1.5-8-1.5a2.06,2.06,0,0,0-.44,0,4.72,4.72,0,0,0-2.8,1.45,3.54,3.54,0,0,0-1.66.69,5,5,0,0,0-1.42,1.66,6.75,6.75,0,0,0-.57,1.44A7.87,7.87,0,0,0,18,27.35a15.06,15.06,0,0,0-.14,2.4c0,.7,0,1.29,0,1.78a3.12,3.12,0,0,1-.58,1.57,1.7,1.7,0,0,0,.49-.11,2.66,2.66,0,0,0,1.14-.91,6.22,6.22,0,0,0,.94-2,16.48,16.48,0,0,0,.5-2.34c0-.26.07-.5.1-.74.07-.49.14-.94.22-1.36A8.93,8.93,0,0,1,21.12,24c.1-.24.2-.46.3-.65a8.35,8.35,0,0,0,0,3.91c.15.76.31,1.43.39,1.92.36,2.14-1.43,4.47-1.43,4.47a21.25,21.25,0,0,1-.14,5.37h.42l.17,1.75h1.85a2.58,2.58,0,0,0-.92-1.75l.26-3.62a4.33,4.33,0,0,1,1.76-3,16.43,16.43,0,0,0,2.81-3.18,19.39,19.39,0,0,0,2.93,1,15.81,15.81,0,0,0,1.79.33,22.5,22.5,0,0,0,2.74.15h.68a13.77,13.77,0,0,0,1.49-.13,11.12,11.12,0,0,0,1.37-.25,30.74,30.74,0,0,1-.15,8.67H38l.17,1.75h1.94a2.78,2.78,0,0,0-1-1.75c0-1.49.83-7.4,1.67-9.1a12,12,0,0,0,.87-3.29c.11-.74.9-8.22.9-8.22a3.36,3.36,0,0,0,1.34.27,8.28,8.28,0,0,0,.92-.06h.23a1.51,1.51,0,0,1,1.27.65.27.27,0,0,0,.19.07,1.46,1.46,0,0,0,1.18-2"/><path d="M46.45,8c-.31-1-3.36-2.7-3.36-2.7s-1.52-1-1.77-1.1-.33-.52-.75-.84a16.06,16.06,0,0,0-2.23-1A4.29,4.29,0,0,0,37.77,0a10.92,10.92,0,0,1-.45,1.24,3.7,3.7,0,0,0-.41-1A10.9,10.9,0,0,1,36,2.49a4.31,4.31,0,0,0-.89.78,59,59,0,0,0-5.66,8.78c-.69,1.2-1.52,2.8-3.17,3a18.13,18.13,0,0,1-2.06.11C19,15.15,14.67,13,12,13a3.66,3.66,0,0,0-.68.06,7.36,7.36,0,0,0-4.26,2,5.77,5.77,0,0,0-2.54,1,7.33,7.33,0,0,0-2.16,2.33A10.33,10.33,0,0,0,1.15,22a20.69,20.69,0,0,0-.21,3.36A19.16,19.16,0,0,1,.88,27.8,4.28,4.28,0,0,1,0,30a2.63,2.63,0,0,0,.74-.16,4,4,0,0,0,1.75-1.27,8.51,8.51,0,0,0,1.42-2.77,21.27,21.27,0,0,0,.76-3.27c.18-1.1.31-2.08.5-2.95a12,12,0,0,1,.71-2.3c.15-.33.31-.64.46-.9-.93,2.56.33,6.32.66,8.17.55,3-2.18,6.26-2.18,6.26a27.39,27.39,0,0,1-.22,7.53h.64L5.5,40.8H8.32a3.54,3.54,0,0,0-1.41-2.45l.41-5.08A6,6,0,0,1,10,29.09a24.62,24.62,0,0,0,4.28-4.45l2.3,1A9.63,9.63,0,0,1,17.25,24a6.81,6.81,0,0,1,2-2.27,5.77,5.77,0,0,1,1.84-.89,6.47,6.47,0,0,1,3.3-1.55,4,4,0,0,1,.79-.07,12.26,12.26,0,0,1,3.2.63,17.28,17.28,0,0,0,4.78.87,9.82,9.82,0,0,0,1.09-.06,4.54,4.54,0,0,0,.68-1l.08-.15c.18-.33.35-.67.53-1l.48-.91A38,38,0,0,1,38.09,14c.28-2.42.52-4.52.52-4.52a6,6,0,0,0,1.53.35l.52,0h.41l.24,0,.29,0,.35,0h.47A2.65,2.65,0,0,1,43,9.8a2.43,2.43,0,0,1,1.34.85.43.43,0,0,0,.3.09A2.07,2.07,0,0,0,46.45,8"/></svg>
