<svg class="icon" xmlns="http://www.w3.org/2000/svg" viewBox="0 0 55 38"><polygon points="0 0 55 0 55 37.9 0 37.9 0 0" fill="none"/><path d="M32.28,12.16A12.35,12.35,0,0,0,31.54,11c-.25-.33-.26-.4,0-.7A8.45,8.45,0,0,1,33.63,9a1.17,1.17,0,0,0,.61-.58,9.49,9.49,0,0,0,1.22,2.94,5.88,5.88,0,0,1-3.18.81M52.05,5.33A5,5,0,0,0,50.6,4.06c-.33-.21-.4-.22-.46-.62,0-.13-.22-1.42-.41-1.42h0a1.93,1.93,0,0,0-.71,1,2.18,2.18,0,0,0-.74-1.37c-.33.48-.33,1.48-.65,1.52a3.35,3.35,0,0,0-1,.31c-3.1,1.59-5.67,4-8.41,6.14-.15.11-.3.22-.46.32a7.84,7.84,0,0,1-.33-1.89c0-.42-.06-.83-.08-1.25s0-.72,0-1.09a2,2,0,0,0,0-.24c0-.06,0-.12,0-.18s-.09-.22-.07-.31.13-.13.19-.16c.22-.12.25,0,.42-.11s.26-.18.37-.18h0a.76.76,0,0,1,.36.24,1.53,1.53,0,0,0,.42.34,1.12,1.12,0,0,0,.38.08c.12,0,.23,0,.27-.12s0-.29.09-.4.1,0,.13-.08,0-.1,0-.12a.22.22,0,0,0,.1-.08c0-.06-.07-.31.12-.37h.33c.17-.08.09-.35.07-.51-.07-.46-.2-.42,0-.63a.68.68,0,0,0,.14-.32L42,2.74l0-.09-1.27-.53a1.64,1.64,0,0,0,0-.48,1.93,1.93,0,0,0-1-1.37A2.54,2.54,0,0,0,38.54,0a2.79,2.79,0,0,0-1.13.25,1.87,1.87,0,0,0-.93,1c-.23.57.14.87-.39,1.36a1.94,1.94,0,0,0-1-.3l-.15,0c-2.35.49-3.9,1.67-5.76,2.94a12.87,12.87,0,0,0-1.87,1.51c-.09.08-.55.49-.34.64a3.59,3.59,0,0,0-1.89,2.06,2.35,2.35,0,0,0,.32,1.94,7.76,7.76,0,0,0,1,.86l-1.61-.15a17.41,17.41,0,0,0-1.93-.11,9,9,0,0,0-3.06.45,8.42,8.42,0,0,0-2.36,1.4,7.19,7.19,0,0,0-3.32-1.51,7.24,7.24,0,0,0-1.51-.14,37.76,37.76,0,0,0-4.73.53,6.06,6.06,0,0,1-.75,0c-1.72,0-3.81-.61-7.15-.7,1.56,2.61,4.62,5.06,7.56,5.06a4.3,4.3,0,0,0,.62,0,19.57,19.57,0,0,0,5.09-1.52,4.72,4.72,0,0,1,2-.53,3.05,3.05,0,0,1,1.05.18,6.81,6.81,0,0,0-1.21,4.2c.14,1.1.67,2.1.06,3.16-.74,1.31-2.72,2-4.12,2.25-.46.07-1-.06-1.35.3a2.3,2.3,0,0,0-.53,1.2c-.13.5-.31,1-.4,1.49a35.18,35.18,0,0,0-.4,3.84,1.8,1.8,0,0,1-.25.88c-.1.18-.36.33-.36.54s.14.29.21.38.13.14.18.21-.09.31-.26.4a5.17,5.17,0,0,0-.75.36c-.56.41-.45.3-.27.83.11.29,1.32,2,1.59,2h0a2.7,2.7,0,0,0,1.2-2.48,8.8,8.8,0,0,1,.06-3c.25-.79.47-1.61.78-2.36a9.93,9.93,0,0,1,.9-2,1.61,1.61,0,0,1,1.24-.35,16.59,16.59,0,0,0,3.88-.72c.76-.21,1.53-.38,2.28-.59h0c.11,0,.11.93.09,1a1.74,1.74,0,0,1-.51.95c-.25.2-.62.29-.76.61s.21.92.44,1.29c.63,1,1.62,1.8,2.32,2.78a13.07,13.07,0,0,0,1.4,1.73,2,2,0,0,1,.47.73c.08.23,0,.59.22.75a.46.46,0,0,0,.2.05c.14,0,.29,0,.4,0s.24,0,.23.28-.26.66-.3,1c-.08.68-.09.53.43.75a9.09,9.09,0,0,0,2,.23c.31,0,.54,0,.54-.11a2.69,2.69,0,0,0-1-2.56,8.71,8.71,0,0,1-2.2-2.08c-.41-.72-.88-1.43-1.22-2.17a9.51,9.51,0,0,1-.86-2c-.09-.72.45-.88.85-1.37a20.68,20.68,0,0,0,1.92-3.49l.29-.2c.93-.64,1.28-.77,1.81-.77.36,0,.81.06,1.57.06a24.94,24.94,0,0,1,3.27.21,1.75,1.75,0,0,0,.31.59c.45.53,1.82.47,2.52.58a6.81,6.81,0,0,0,1.19.17,1.17,1.17,0,0,0,.7-.18.56.56,0,0,0,.25-.78h1l.8,0c.49.35,1,.71,1.3.9a16.31,16.31,0,0,0,1.57.9,13.09,13.09,0,0,1,4.05,2.76A15.76,15.76,0,0,0,45.79,30a3.92,3.92,0,0,1,1.68,2,.86.86,0,0,1,0,.32,1.8,1.8,0,0,1,0,.22c0,.2.15.26.34.26a1,1,0,0,0,.33-.05h0c.1,0,.17.13.21.2a1.39,1.39,0,0,1,.09.35,2,2,0,0,1,0,.49c0,.24-.09.45,0,.67a1.54,1.54,0,0,0,1.34.54h.22c1.82-.14,1.42-1,.65-2.13s-1-1-1.9-2.08c-.6-.72-1.26-1.31-1.8-2.08a11,11,0,0,1-.72-1.06,5.57,5.57,0,0,0-.63-1.21c-.42-.48-1-.8-1.42-1.26a7.55,7.55,0,0,1-1.61-2.29c1.8.1,4,.44,5.28.44a4.35,4.35,0,0,0,.53,0h0c.31,0,.36.42.46.67a1.45,1.45,0,0,1,.12,1c-.07.21-.37.37-.37.59s.31.35.49.4.35.16.18.36a1.17,1.17,0,0,1-.63.25c-.23,0-.46,0-.64.19a1.7,1.7,0,0,0-.18,1.64c.25.8.55,1.11.89,1.11s.84-.41,1.33-.95a3,3,0,0,0,.87-3c-.07-.86-.25-1.74-.38-2.6-.07-.42,0-1.54-.66-1.58-1.38-.08-5-2.1-6.36-2.19a7.9,7.9,0,0,0,.93-1.46c.78-1.59.79-4.08,1.63-5.64A14,14,0,0,1,47.8,9.61c.91,1,2.41.65,3.4,1.37.39.28.72.86,1.19,1.1a1.22,1.22,0,0,0,.56.22.32.32,0,0,0,.14,0,2.62,2.62,0,0,0,.54-.38l-.25-.8.76.53c.25-.13.55-.26.65-.46,1-1.87-1.64-3.72-2.52-5.07-.16-.25-.11-.51-.22-.77"/></svg>
